<svg width="24" height="24" viewBox="0 0 24 24" fill="none" xmlns="http://www.w3.org/2000/svg">
<path fill-rule="evenodd" clip-rule="evenodd" d="M5.8472 2.25C6.26141 2.25 6.5972 2.58579 6.5972 3L6.5972 21C6.5972 21.4142 6.26141 21.75 5.8472 21.75C5.43298 21.75 5.0972 21.4142 5.0972 21L5.0972 3C5.0972 2.58579 5.43298 2.25 5.8472 2.25Z" fill="#0A7937"/>
<path fill-rule="evenodd" clip-rule="evenodd" d="M3 2.25C3.41421 2.25 3.75 2.58579 3.75 3L3.75 21C3.75 21.4142 3.41421 21.75 3 21.75C2.58579 21.75 2.25 21.4142 2.25 21L2.25 3C2.25 2.58579 2.58579 2.25 3 2.25Z" fill="#0A7937"/>
<path fill-rule="evenodd" clip-rule="evenodd" d="M21.5303 11.4697C21.8232 11.7626 21.8232 12.2374 21.5303 12.5303L18.5303 15.5303C18.2374 15.8232 17.7626 15.8232 17.4697 15.5303C17.1768 15.2374 17.1768 14.7626 17.4697 14.4697L19.9393 12L17.4697 9.53033C17.1768 9.23744 17.1768 8.76256 17.4697 8.46967C17.7626 8.17678 18.2374 8.17678 18.5303 8.46967L21.5303 11.4697Z" fill="#0A7937"/>
<path fill-rule="evenodd" clip-rule="evenodd" d="M21.75 12C21.75 12.4142 21.4142 12.75 21 12.75L9.5 12.75C9.08579 12.75 8.75 12.4142 8.75 12C8.75 11.5858 9.08579 11.25 9.5 11.25L21 11.25C21.4142 11.25 21.75 11.5858 21.75 12Z" fill="#0A7937"/>
</svg>
