<svg width="24" height="24" viewBox="0 0 24 24"  xmlns="http://www.w3.org/2000/svg" fill="#2CCBCB">
<path d="M12.72 15.78C12.5795 15.9207 12.3888 15.9998 12.19 16H11.81C11.6116 15.9977 11.4217 15.9189 11.28 15.78L6.14997 10.64C6.05532 10.5461 6.00208 10.4183 6.00208 10.285C6.00208 10.1517 6.05532 10.0239 6.14997 9.93001L6.85997 9.22001C6.95214 9.12595 7.07828 9.07294 7.20997 9.07294C7.34166 9.07294 7.46781 9.12595 7.55997 9.22001L12 13.67L16.44 9.22001C16.5339 9.12536 16.6617 9.07211 16.795 9.07211C16.9283 9.07211 17.0561 9.12536 17.15 9.22001L17.85 9.93001C17.9446 10.0239 17.9979 10.1517 17.9979 10.285C17.9979 10.4183 17.9446 10.5461 17.85 10.64L12.72 15.78Z" />
</svg>
