<svg width="16" height="16" viewBox="0 0 16 16" fill="none" xmlns="http://www.w3.org/2000/svg">
<path d="M9.2522 7.99932L13.0707 4.18913C13.238 4.02189 13.3319 3.79506 13.3319 3.55854C13.3319 3.32202 13.238 3.09519 13.0707 2.92795C12.9035 2.7607 12.6767 2.66675 12.4402 2.66675C12.2038 2.66675 11.977 2.7607 11.8097 2.92795L8.00008 6.74702L4.19043 2.92795C4.02321 2.7607 3.79641 2.66675 3.55993 2.66675C3.32344 2.66675 3.09665 2.7607 2.92943 2.92795C2.76221 3.09519 2.66826 3.32202 2.66826 3.55854C2.66826 3.79506 2.76221 4.02189 2.92943 4.18913L6.74796 7.99932L2.92943 11.8095C2.84619 11.8921 2.78013 11.9903 2.73504 12.0985C2.68996 12.2068 2.66675 12.3229 2.66675 12.4401C2.66675 12.5574 2.68996 12.6734 2.73504 12.7817C2.78013 12.8899 2.84619 12.9881 2.92943 13.0707C3.01198 13.1539 3.1102 13.22 3.21841 13.2651C3.32663 13.3102 3.4427 13.3334 3.55993 13.3334C3.67716 13.3334 3.79323 13.3102 3.90144 13.2651C4.00966 13.22 4.10788 13.1539 4.19043 13.0707L8.00008 9.25162L11.8097 13.0707C11.8923 13.1539 11.9905 13.22 12.0987 13.2651C12.2069 13.3102 12.323 13.3334 12.4402 13.3334C12.5575 13.3334 12.6735 13.3102 12.7818 13.2651C12.89 13.22 12.9882 13.1539 13.0707 13.0707C13.154 12.9881 13.22 12.8899 13.2651 12.7817C13.3102 12.6734 13.3334 12.5574 13.3334 12.4401C13.3334 12.3229 13.3102 12.2068 13.2651 12.0985C13.22 11.9903 13.154 11.8921 13.0707 11.8095L9.2522 7.99932Z" fill="#828282"/>
</svg>
