<svg width="24" height="24" viewBox="0 0 24 24" fill="none" xmlns="http://www.w3.org/2000/svg">
<g opacity="0.5">
<path fill-rule="evenodd" clip-rule="evenodd" d="M3.25 3C3.25 2.0335 4.0335 1.25 5 1.25H15.5C15.7126 1.25 15.9152 1.34024 16.0575 1.49828L20.5575 6.49828C20.6814 6.63599 20.75 6.81472 20.75 7V21C20.75 21.9665 19.9665 22.75 19 22.75H5C4.03351 22.75 3.25 21.9665 3.25 21V3ZM5 2.75C4.86193 2.75 4.75 2.86193 4.75 3V21C4.75 21.1381 4.86192 21.25 5 21.25H19C19.1381 21.25 19.25 21.1381 19.25 21V7.2878L15.166 2.75H5Z" fill="#0A7937"/>
<path fill-rule="evenodd" clip-rule="evenodd" d="M9.25 11.75C9.25 10.1786 10.4006 8.75 12 8.75C13.5994 8.75 14.75 10.1786 14.75 11.75C14.75 13.0628 13.9469 14.2759 12.75 14.6397V15.5C12.75 15.9142 12.4142 16.25 12 16.25C11.5858 16.25 11.25 15.9142 11.25 15.5V14C11.25 13.5858 11.5858 13.25 12 13.25C12.6097 13.25 13.25 12.6639 13.25 11.75C13.25 10.8361 12.6097 10.25 12 10.25C11.3903 10.25 10.75 10.8361 10.75 11.75C10.75 12.1642 10.4142 12.5 10 12.5C9.58579 12.5 9.25 12.1642 9.25 11.75Z" fill="#0A7937"/>
<path fill-rule="evenodd" clip-rule="evenodd" d="M12 19.5C12.6904 19.5 13.25 18.9404 13.25 18.25C13.25 17.5597 12.6904 17 12 17C11.3097 17 10.75 17.5597 10.75 18.25C10.75 18.9404 11.3097 19.5 12 19.5Z" fill="#0A7937"/>
<path fill-rule="evenodd" clip-rule="evenodd" d="M15 1.25C15.4142 1.25 15.75 1.58579 15.75 2V6.25H20C20.4142 6.25 20.75 6.58579 20.75 7C20.75 7.41421 20.4142 7.75 20 7.75H15C14.5858 7.75 14.25 7.41421 14.25 7V2C14.25 1.58579 14.5858 1.25 15 1.25Z" fill="#0A7937"/>
</g>
</svg>
