<svg width="25" height="24" viewBox="0 0 25 24" fill="none" xmlns="http://www.w3.org/2000/svg">
<path fill-rule="evenodd" clip-rule="evenodd" d="M1.75 4.5C1.75 3.5335 2.5335 2.75 3.5 2.75H10C10.2226 2.75 10.4337 2.84887 10.5762 3.01986L12.8513 5.75H19.25C20.2165 5.75 21 6.53349 21 7.5V10.5C21 10.9142 20.6642 11.25 20.25 11.25H5.58558L3.22761 20.6819C3.13574 21.0494 2.7843 21.2907 2.40836 21.2444C2.03242 21.1981 1.75 20.8788 1.75 20.5V4.5ZM3.5 4.25C3.36193 4.25 3.25 4.36193 3.25 4.5V14.4077L4.27239 10.3181C4.35586 9.98422 4.65585 9.75 5 9.75H19.5V7.5C19.5 7.36191 19.3881 7.25 19.25 7.25H12.5C12.2774 7.25 12.0663 7.15113 11.9238 6.98014L9.64872 4.25H3.5Z" fill="#2B2B2B"/>
<path fill-rule="evenodd" clip-rule="evenodd" d="M4.17707 10.3245C4.25816 9.98753 4.55963 9.75 4.90626 9.75H22.5C22.7247 9.75 22.9376 9.85074 23.08 10.0245C23.2225 10.1983 23.2795 10.4268 23.2354 10.6471L21.2354 20.6471C21.1653 20.9977 20.8575 21.25 20.5 21.25H2.50001C2.27022 21.25 2.05311 21.1447 1.9109 20.9642C1.76869 20.7837 1.71706 20.5479 1.77082 20.3245L4.17707 10.3245ZM5.4972 11.25L3.45188 19.75H19.8852L21.5852 11.25H5.4972Z" fill="#2B2B2B"/>
</svg>
