<svg width="24" height="24" viewBox="0 0 24 24" fill="none" xmlns="http://www.w3.org/2000/svg">
<g opacity="0.5">
<path fill-rule="evenodd" clip-rule="evenodd" d="M7.53033 12.4696C7.82322 12.7625 7.82322 13.2374 7.53033 13.5303L3.56066 17.5L7.53033 21.4696C7.82322 21.7625 7.82322 22.2374 7.53033 22.5303C7.23744 22.8232 6.76256 22.8232 6.46967 22.5303L1.96967 18.0303C1.67678 17.7374 1.67678 17.2625 1.96967 16.9696L6.46967 12.4696C6.76256 12.1767 7.23744 12.1767 7.53033 12.4696Z" fill="#0A7937"/>
<path fill-rule="evenodd" clip-rule="evenodd" d="M1.75 17.5042C1.75 17.0899 2.08579 16.7542 2.5 16.7542H11.25C11.6642 16.7542 12 17.0899 12 17.5042C12 17.9184 11.6642 18.2542 11.25 18.2542H2.5C2.08579 18.2542 1.75 17.9184 1.75 17.5042Z" fill="#0A7937"/>
<path fill-rule="evenodd" clip-rule="evenodd" d="M16.4697 8.46967C16.7626 8.17678 17.2374 8.17678 17.5303 8.46967L22.0303 12.9697C22.3232 13.2626 22.3232 13.7374 22.0303 14.0303L17.5303 18.5303C17.2374 18.8232 16.7626 18.8232 16.4697 18.5303C16.1768 18.2374 16.1768 17.7626 16.4697 17.4697L20.4393 13.5L16.4697 9.53033C16.1768 9.23744 16.1768 8.76256 16.4697 8.46967Z" fill="#0A7937"/>
<path fill-rule="evenodd" clip-rule="evenodd" d="M12 13.5042C12 13.09 12.3358 12.7542 12.75 12.7542H21.5C21.9142 12.7542 22.25 13.09 22.25 13.5042C22.25 13.9184 21.9142 14.2542 21.5 14.2542H12.75C12.3358 14.2542 12 13.9184 12 13.5042Z" fill="#0A7937"/>
<path fill-rule="evenodd" clip-rule="evenodd" d="M1.5 3.75C1.5 3.33579 1.83579 3 2.25 3H21.75C22.1642 3 22.5 3.33579 22.5 3.75V7.5C22.5 7.91421 22.1642 8.25 21.75 8.25C21.3358 8.25 21 7.91421 21 7.5V4.5H3V12C3 12.4142 2.66421 12.75 2.25 12.75C1.83579 12.75 1.5 12.4142 1.5 12V3.75Z" fill="#0A7937"/>
</g>
</svg>
