<svg width="179" height="29" viewBox="0 0 179 29" fill="none" xmlns="http://www.w3.org/2000/svg">
<path d="M0.674656 27.7178V0.952637H18.6979V5.90002H6.15382V11.335H15.3689V15.9989H6.15382V22.7719H19.1844V27.7193H0.673096L0.674656 27.7178Z" fill="#2B2B2B"/>
<path d="M21.7821 14.3352C21.7275 10.4969 23.1215 7.20541 25.9624 4.46067C28.8033 1.71748 32.1728 0.385615 36.0694 0.466618C38.6125 0.466618 40.9202 1.05544 42.9908 2.23154C45.0615 3.40763 46.6909 5.03703 47.8822 7.11818L43.7424 10.0374C41.8198 7.03717 39.2627 5.53551 36.0709 5.53551C33.5808 5.53551 31.518 6.37357 29.8808 8.0497C28.2436 9.72583 27.425 11.835 27.425 14.3757C27.425 16.9164 28.2436 19.0131 29.8808 20.6612C31.518 22.3108 33.5808 23.1349 36.0709 23.1349C39.2643 23.1349 41.8214 21.6348 43.7424 18.633L47.8822 21.5522C46.719 23.6349 45.0942 25.2627 43.0111 26.4388C40.9264 27.6149 38.6 28.2022 36.0288 28.2022C32.1042 28.2832 28.7285 26.9513 25.9016 24.2082C23.0731 21.465 21.6994 18.1719 21.7821 14.3336V14.3352Z" fill="#2B2B2B"/>
<path d="M50.8073 14.3352C50.7528 10.5234 52.1405 7.23811 54.9674 4.4809C57.7943 1.7237 61.1435 0.3856 65.0135 0.466602C68.8836 0.3856 72.2453 1.7237 75.1003 4.4809C77.9552 7.23811 79.3554 10.5234 79.3024 14.3352C79.357 18.147 77.9552 21.4322 75.1003 24.1895C72.2453 26.9467 68.882 28.2848 65.0135 28.2037C61.1435 28.2848 57.7943 26.9467 54.9674 24.1895C52.1389 21.4322 50.7528 18.147 50.8073 14.3352ZM73.6611 14.3352C73.6611 11.7945 72.8425 9.69155 71.2053 8.02944C69.5681 6.36733 67.5177 5.5355 65.0556 5.5355C62.5936 5.5355 60.5089 6.3611 58.8857 8.00919C57.2626 9.65884 56.4502 11.768 56.4502 14.3352C56.4502 16.9023 57.2626 19.0131 58.8857 20.6612C60.5089 22.3108 62.5655 23.1349 65.0556 23.1349C67.5457 23.1349 69.5681 22.3108 71.2053 20.6612C72.8425 19.0131 73.6611 16.9039 73.6611 14.3352Z" fill="#2B2B2B"/>
<path d="M83.9302 27.7178V0.952671H92.6978C96.9732 0.89815 100.492 2.12253 103.252 4.62271C106.012 7.12444 107.366 10.3349 107.311 14.2542C107.366 18.147 105.998 21.3778 103.212 23.9465C100.424 26.5152 96.9202 27.7723 92.6978 27.7178H83.9302ZM89.4109 22.7704H92.6588C95.3641 22.7704 97.5423 21.9931 99.1936 20.4385C100.845 18.8838 101.67 16.8229 101.67 14.2542C101.67 11.6855 100.857 9.61839 99.2341 8.13075C97.6109 6.64466 95.4186 5.90006 92.6588 5.90006H89.4109V22.7704Z" fill="#2B2B2B"/>
<path d="M128.623 27.7178L127.121 24.23H116.161L114.66 27.7178H108.773L120.748 0.465088H122.574L134.509 27.7178H128.623ZM125.212 19.7281L121.64 10.6839L118.068 19.7281H125.212Z" fill="#2B2B2B"/>
<path d="M141.167 27.7177V5.90002H132.602V0.952637H155.253V5.90002H146.647V27.7177H141.167Z" fill="#2B2B2B"/>
<path d="M173.114 27.7178L171.612 24.23H160.652L159.151 27.7178H153.265L165.24 0.465088H167.066L179 27.7178H173.114ZM169.704 19.7281L166.132 10.6839L162.559 19.7281H169.704Z" fill="#2B2B2B"/>
</svg>
