<svg width="179" height="54" viewBox="0 0 179 54" fill="none" xmlns="http://www.w3.org/2000/svg">
<path d="M24.6816 54L49.3624 39.8102V32.7596L24.6816 46.9504V54Z" fill="#0A7937"/>
<path d="M49.5575 14.3398L24.7403 28.3465L18.885 24.9707L37.3292 14.3223L24.6808 7.05059L0 21.2404V14.1898L24.6808 0L49.5575 14.3398Z" fill="url(#paint0_linear_493_4040)"/>
<path d="M24.6818 53.9999L0 39.8101V14.1965L5.86017 17.7077V36.1294L24.6818 46.9503V53.9999Z" fill="#0A7937"/>
<path d="M67.3232 34.7524V18.0176H78.5922V21.1109H70.7491V24.5091H76.5108V27.4252H70.7491V31.66H78.8964V34.7534H67.3223L67.3232 34.7524Z" fill="#2B2B2B"/>
<path d="M80.5208 26.385C80.4866 23.9851 81.3582 21.9271 83.1345 20.211C84.9108 18.4958 87.0175 17.6631 89.4538 17.7137C91.0439 17.7137 92.4868 18.0819 93.7815 18.8172C95.0761 19.5526 96.0949 20.5714 96.8397 21.8726L94.2514 23.6978C93.0493 21.8219 91.4505 20.883 89.4548 20.883C87.8979 20.883 86.6081 21.407 85.5844 22.455C84.5608 23.503 84.0489 24.8218 84.0489 26.4103C84.0489 27.9989 84.5608 29.3099 85.5844 30.3403C86.6081 31.3718 87.8979 31.887 89.4548 31.887C91.4514 31.887 93.0503 30.949 94.2514 29.0722L96.8397 30.8974C96.1125 32.1996 95.0966 33.2174 93.7941 33.9528C92.4907 34.6881 91.0361 35.0553 89.4285 35.0553C86.9746 35.106 84.864 34.2732 83.0965 32.5581C81.328 30.8429 80.4691 28.7839 80.5208 26.384V26.385Z" fill="#2B2B2B"/>
<path d="M98.6684 26.385C98.6343 24.0017 99.502 21.9476 101.27 20.2236C103.037 18.4997 105.131 17.6631 107.551 17.7137C109.971 17.6631 112.072 18.4997 113.858 20.2236C115.643 21.9476 116.518 24.0017 116.485 26.385C116.519 28.7683 115.643 30.8224 113.858 32.5464C112.072 34.2703 109.97 35.1069 107.551 35.0563C105.131 35.1069 103.037 34.2703 101.27 32.5464C99.501 30.8224 98.6343 28.7683 98.6684 26.385ZM112.958 26.385C112.958 24.7964 112.446 23.4816 111.422 22.4424C110.399 21.4031 109.117 20.883 107.577 20.883C106.038 20.883 104.734 21.3992 103.719 22.4297C102.705 23.4611 102.197 24.7799 102.197 26.385C102.197 27.9901 102.705 29.3098 103.719 30.3403C104.734 31.3717 106.02 31.887 107.577 31.887C109.134 31.887 110.399 31.3717 111.422 30.3403C112.446 29.3098 112.958 27.9911 112.958 26.385Z" fill="#2B2B2B"/>
<path d="M119.378 34.7523V18.0175H124.86C127.534 17.9834 129.734 18.749 131.459 20.3122C133.185 21.8764 134.031 23.8837 133.997 26.3343C134.031 28.7682 133.176 30.7882 131.434 32.3943C129.691 34.0004 127.5 34.7864 124.86 34.7523H119.378ZM122.805 31.659H124.836C126.527 31.659 127.889 31.173 128.922 30.2009C129.954 29.2289 130.47 27.9403 130.47 26.3343C130.47 24.7282 129.962 23.4357 128.947 22.5056C127.932 21.5764 126.562 21.1108 124.836 21.1108H122.805V31.659Z" fill="#2B2B2B"/>
<path d="M147.322 34.7524L146.383 32.5716H139.531L138.592 34.7524H134.912L142.399 17.7127H143.541L151.002 34.7524H147.322ZM145.19 29.7569L142.957 24.102L140.723 29.7569H145.19Z" fill="#2B2B2B"/>
<path d="M155.165 34.7524V21.1109H149.81V18.0176H163.973V21.1109H158.592V34.7524H155.165Z" fill="#2B2B2B"/>
<path d="M175.141 34.7524L174.202 32.5716H167.349L166.41 34.7524H162.73L170.217 17.7127H171.359L178.821 34.7524H175.141ZM173.008 29.7569L170.775 24.102L168.541 29.7569H173.008Z" fill="#2B2B2B"/>
<defs>
<linearGradient id="paint0_linear_493_4040" x1="0" y1="14.1733" x2="49.5575" y2="14.1733" gradientUnits="userSpaceOnUse">
<stop stop-color="#19A74E"/>
<stop offset="0.5" stop-color="#19A74E"/>
<stop offset="1" stop-color="#19A74E"/>
</linearGradient>
</defs>
</svg>
