<svg width="25" height="24" viewBox="0 0 25 24" fill="none" xmlns="http://www.w3.org/2000/svg">
<path fill-rule="evenodd" clip-rule="evenodd" d="M17.7084 5C17.7084 4.58579 18.0582 4.25 18.4896 4.25H21.6146C22.0461 4.25 22.3959 4.58579 22.3959 5C22.3959 5.41421 22.0461 5.75 21.6146 5.75H18.4896C18.0582 5.75 17.7084 5.41421 17.7084 5Z" fill="#2B2B2B"/>
<path fill-rule="evenodd" clip-rule="evenodd" d="M14.3229 2.25C14.7543 2.25 15.1041 2.58579 15.1041 3V7C15.1041 7.41421 14.7543 7.75 14.3229 7.75C13.8914 7.75 13.5416 7.41421 13.5416 7V3C13.5416 2.58579 13.8914 2.25 14.3229 2.25Z" fill="#2B2B2B"/>
<path fill-rule="evenodd" clip-rule="evenodd" d="M2.08337 5C2.08337 4.58579 2.43315 4.25 2.86462 4.25H14.323C14.7544 4.25 15.1042 4.58579 15.1042 5C15.1042 5.41421 14.7544 5.75 14.323 5.75H2.86462C2.43315 5.75 2.08337 5.41421 2.08337 5Z" fill="#2B2B2B"/>
<path fill-rule="evenodd" clip-rule="evenodd" d="M2.08337 12C2.08337 11.5858 2.43315 11.25 2.86462 11.25H7.03129C7.46276 11.25 7.81254 11.5858 7.81254 12C7.81254 12.4142 7.46276 12.75 7.03129 12.75H2.86462C2.43315 12.75 2.08337 12.4142 2.08337 12Z" fill="#2B2B2B"/>
<path fill-rule="evenodd" clip-rule="evenodd" d="M11.1979 9.25C11.6293 9.25 11.9791 9.58579 11.9791 10V14C11.9791 14.4142 11.6293 14.75 11.1979 14.75C10.7664 14.75 10.4166 14.4142 10.4166 14V10C10.4166 9.58579 10.7664 9.25 11.1979 9.25Z" fill="#2B2B2B"/>
<path fill-rule="evenodd" clip-rule="evenodd" d="M10.4166 12C10.4166 11.5858 10.7664 11.25 11.1979 11.25H22.6562C23.0877 11.25 23.4375 11.5858 23.4375 12C23.4375 12.4142 23.0877 12.75 22.6562 12.75H11.1979C10.7664 12.75 10.4166 12.4142 10.4166 12Z" fill="#2B2B2B"/>
<path fill-rule="evenodd" clip-rule="evenodd" d="M17.7084 19C17.7084 18.5858 18.0582 18.25 18.4896 18.25H21.6146C22.0461 18.25 22.3959 18.5858 22.3959 19C22.3959 19.4142 22.0461 19.75 21.6146 19.75H18.4896C18.0582 19.75 17.7084 19.4142 17.7084 19Z" fill="#2B2B2B"/>
<path fill-rule="evenodd" clip-rule="evenodd" d="M14.3229 16.25C14.7543 16.25 15.1041 16.5858 15.1041 17V21C15.1041 21.4142 14.7543 21.75 14.3229 21.75C13.8914 21.75 13.5416 21.4142 13.5416 21V17C13.5416 16.5858 13.8914 16.25 14.3229 16.25Z" fill="#2B2B2B"/>
<path fill-rule="evenodd" clip-rule="evenodd" d="M2.08337 19C2.08337 18.5858 2.43315 18.25 2.86462 18.25H14.323C14.7544 18.25 15.1042 18.5858 15.1042 19C15.1042 19.4142 14.7544 19.75 14.323 19.75H2.86462C2.43315 19.75 2.08337 19.4142 2.08337 19Z" fill="#2B2B2B"/>
</svg>
