<svg width="24" height="24" viewBox="0 0 24 24" fill="none" xmlns="http://www.w3.org/2000/svg">
<path fill-rule="evenodd" clip-rule="evenodd" d="M4.65039 8.47521C6.56878 7.70786 9.16759 7.25 12 7.25C14.8324 7.25 17.4312 7.70786 19.3496 8.47521C20.3067 8.85806 21.1316 9.33269 21.7295 9.8981C22.3289 10.465 22.75 11.175 22.75 12C22.75 12.825 22.3289 13.535 21.7295 14.1019C21.1316 14.6673 20.3067 15.1419 19.3496 15.5248C17.4312 16.2921 14.8324 16.75 12 16.75C9.16759 16.75 6.56878 16.2921 4.65039 15.5248C3.69327 15.1419 2.86839 14.6673 2.27052 14.1019C1.67106 13.535 1.25 12.825 1.25 12C1.25 11.175 1.67106 10.465 2.27052 9.8981C2.86839 9.33269 3.69327 8.85806 4.65039 8.47521ZM3.30118 10.9879C2.88858 11.3781 2.75 11.7204 2.75 12C2.75 12.2796 2.88858 12.6219 3.30118 13.0121C3.71536 13.4038 4.35495 13.7911 5.20747 14.1321C6.90837 14.8124 9.30956 15.25 12 15.25C14.6904 15.25 17.0916 14.8124 18.7925 14.1321C19.6451 13.7911 20.2846 13.4038 20.6988 13.0121C21.1114 12.6219 21.25 12.2796 21.25 12C21.25 11.7204 21.1114 11.3781 20.6988 10.9879C20.2846 10.5962 19.6451 10.2089 18.7925 9.86793C17.0916 9.18757 14.6904 8.75 12 8.75C9.30956 8.75 6.90837 9.18757 5.20747 9.86793C4.35495 10.2089 3.71536 10.5962 3.30118 10.9879Z" fill="#0A7937"/>
<path fill-rule="evenodd" clip-rule="evenodd" d="M9.86793 5.20747C9.18757 6.90837 8.75 9.30956 8.75 12C8.75 14.6904 9.18757 17.0916 9.86793 18.7925C10.2089 19.6451 10.5962 20.2846 10.9879 20.6988C11.3781 21.1114 11.7204 21.25 12 21.25C12.2796 21.25 12.6219 21.1114 13.0121 20.6988C13.4038 20.2846 13.7911 19.6451 14.1321 18.7925C14.8124 17.0916 15.25 14.6904 15.25 12C15.25 9.30956 14.8124 6.90837 14.1321 5.20747C13.7911 4.35495 13.4038 3.71536 13.0121 3.30118C12.6219 2.88858 12.2796 2.75 12 2.75C11.7204 2.75 11.3781 2.88858 10.9879 3.30118C10.5962 3.71536 10.2089 4.35495 9.86793 5.20747ZM9.8981 2.27052C10.465 1.67106 11.175 1.25 12 1.25C12.825 1.25 13.535 1.67106 14.1019 2.27052C14.6673 2.86839 15.1419 3.69327 15.5248 4.65039C16.2921 6.56878 16.75 9.16759 16.75 12C16.75 14.8324 16.2921 17.4312 15.5248 19.3496C15.1419 20.3067 14.6673 21.1316 14.1019 21.7295C13.535 22.3289 12.825 22.75 12 22.75C11.175 22.75 10.465 22.3289 9.8981 21.7295C9.33269 21.1316 8.85806 20.3067 8.47521 19.3496C7.70786 17.4312 7.25 14.8324 7.25 12C7.25 9.16759 7.70786 6.56878 8.47521 4.65039C8.85806 3.69327 9.33269 2.86839 9.8981 2.27052Z" fill="#0A7937"/>
<path fill-rule="evenodd" clip-rule="evenodd" d="M12 2.75C6.89137 2.75 2.75 6.89137 2.75 12C2.75 17.1086 6.89137 21.25 12 21.25C17.1086 21.25 21.25 17.1086 21.25 12C21.25 6.89137 17.1086 2.75 12 2.75ZM1.25 12C1.25 6.06294 6.06294 1.25 12 1.25C17.9371 1.25 22.75 6.06294 22.75 12C22.75 17.9371 17.9371 22.75 12 22.75C6.06294 22.75 1.25 17.9371 1.25 12Z" fill="#0A7937"/>
</svg>
