<svg width="24" height="24" viewBox="0 0 24 24" fill="none" xmlns="http://www.w3.org/2000/svg">
<g opacity="0.5">
<path fill-rule="evenodd" clip-rule="evenodd" d="M4.5 3.75C4.08579 3.75 3.75 4.08579 3.75 4.5V19.5C3.75 19.9142 4.08579 20.25 4.5 20.25H19.5C19.9142 20.25 20.25 19.9142 20.25 19.5V4.5C20.25 4.08579 19.9142 3.75 19.5 3.75H4.5ZM2.25 4.5C2.25 3.25736 3.25736 2.25 4.5 2.25H19.5C20.7426 2.25 21.75 3.25736 21.75 4.5V19.5C21.75 20.7426 20.7426 21.75 19.5 21.75H4.5C3.25736 21.75 2.25 20.7426 2.25 19.5V4.5Z" fill="#0A7937"/>
<path fill-rule="evenodd" clip-rule="evenodd" d="M11.4697 9.46967C11.7626 9.17678 12.2374 9.17678 12.5303 9.46967L16.5303 13.4697C16.8232 13.7626 16.8232 14.2374 16.5303 14.5303C16.2374 14.8232 15.7626 14.8232 15.4697 14.5303L12 11.0607L8.53033 14.5303C8.23744 14.8232 7.76256 14.8232 7.46967 14.5303C7.17678 14.2374 7.17678 13.7626 7.46967 13.4697L11.4697 9.46967Z" fill="#0A7937"/>
<path fill-rule="evenodd" clip-rule="evenodd" d="M12 9.5C12.4142 9.5 12.75 9.83579 12.75 10.25V18C12.75 18.4142 12.4142 18.75 12 18.75C11.5858 18.75 11.25 18.4142 11.25 18V10.25C11.25 9.83579 11.5858 9.5 12 9.5Z" fill="#0A7937"/>
<path fill-rule="evenodd" clip-rule="evenodd" d="M7.25 7C7.25 6.58579 7.58579 6.25 8 6.25H16C16.4142 6.25 16.75 6.58579 16.75 7C16.75 7.41421 16.4142 7.75 16 7.75H8C7.58579 7.75 7.25 7.41421 7.25 7Z" fill="#0A7937"/>
</g>
</svg>
